<?xml version="1.0" encoding="UTF-8"?>
<svg id="Capa_1" data-name="Capa 1" xmlns="http://www.w3.org/2000/svg" viewBox="0 0 500 500">
  <defs>
    <style>
      .cls-1 {
        fill: #438ef9;
        stroke: #438ef9;
        stroke-miterlimit: 10;
        stroke-width: 7.577px;
      }
    </style>
  </defs>
  <path class="cls-1" d="M300.283,164.572c-2.388-2.388-6.256-2.388-8.643,0l-57.114,57.114c-1.157-.342-2.358-.583-3.626-.583s-2.469.241-3.627.583l-38.249-38.246c-2.388-2.388-6.256-2.388-8.643,0-2.388,2.388-2.388,6.256,0,8.643l38.249,38.247c-.342,1.157-.583,2.358-.583,3.626,0,7.098,5.754,12.852,12.852,12.852s12.852-5.754,12.852-12.852c0-1.268-.24-2.469-.583-3.626l57.114-57.114c2.388-2.388,2.388-6.256,0-8.643Z"/>
  <path class="cls-1" d="M269.471,372.311c-10.621,2.954-21.514,4.604-32.459,5.074v-18.426h-12.225v18.48c-35.001-1.474-66.799-15.519-90.983-37.744l13.028-13.028-8.643-8.643-13.028,13.028c-22.226-24.184-36.27-55.982-37.744-90.983h18.48v-12.225h-18.48c1.474-35.002,15.519-66.799,37.744-90.983l13.028,13.028,8.643-8.643-13.028-13.028c24.185-22.226,55.982-36.27,90.983-37.744v18.48h12.225v-18.365c34.536,1.486,66.473,15.378,90.881,37.732l-12.925,12.925,8.643,8.643,12.942-12.942c17.115,18.558,29.551,41.63,34.953,67.559.866,4.131,4.915,6.769,9.037,5.921,4.13-.859,6.784-4.907,5.921-9.037-15.254-73.216-80.677-126.352-155.564-126.352-87.628,0-158.919,71.288-158.919,158.919s71.291,158.919,158.919,158.919c14.382,0,28.738-1.964,42.666-5.844,4.068-1.128,6.444-5.342,5.312-9.407-1.131-4.065-5.348-6.447-9.407-5.312Z"/>
  <path class="cls-1" d="M414.339,255.086h-29.982v-1.361c0-12.368-10.061-22.426-22.426-22.426s-22.426,10.058-22.426,22.426v1.361h-29.982c-7.545,0-13.681,6.136-13.681,13.681v19.704l6.112,6.112h.31v130.381h119.332v-130.381h.31l6.112-6.112v-19.704c0-7.545-6.136-13.681-13.681-13.681ZM351.73,253.725c0-5.623,4.575-10.201,10.201-10.201s10.201,4.578,10.201,10.201v1.361h-20.402v-1.361ZM308.066,268.767c0-.806.654-1.456,1.457-1.456h104.816c.803,0,1.456.651,1.456,1.456v13.591h-107.729v-13.591ZM337.968,412.739h-23.479v-118.156h23.479v118.156ZM373.669,412.739h-23.476v-118.156h23.476v118.156ZM409.372,412.739h-23.479v-118.156h23.479v118.156Z"/>
</svg>