<?xml version="1.0" encoding="UTF-8"?>
<svg id="Capa_1" data-name="Capa 1" xmlns="http://www.w3.org/2000/svg" viewBox="0 0 500 500">
  <defs>
    <style>
      .cls-1 {
        fill: #438ef9;
        stroke: #438ef9;
        stroke-miterlimit: 10;
        stroke-width: 3.667px;
      }
    </style>
  </defs>
  <path class="cls-1" d="M155.068,110.539c-.771-.905-1.918-1.479-3.2-1.479-2.32,0-4.2,1.881-4.2,4.2v60.149h0c0,1.075.41,2.15,1.23,2.97h0s58.144,58.144,58.144,58.144c4.915,4.915,11.356,7.372,17.797,7.372,6.44,0,12.882-2.457,17.797-7.372l14.966-14.966,44.549,44.549-25.802,25.803c-.771.761-1.248,1.818-1.248,2.987,0,2.32,1.881,4.2,4.2,4.2v-.017h86.702c.122.011.245.016.369.016,2.32,0,4.2-1.881,4.2-4.2h-.016v-86.706c.104-1.193-.3-2.422-1.213-3.336-1.64-1.64-4.3-1.64-5.94,0h0s-25.658,25.658-25.658,25.658l-62.346-62.345h0c-4.914-4.915-11.356-7.373-17.797-7.373s-12.881,2.457-17.796,7.372h0s-14.958,14.958-14.958,14.958l-69.78-70.584h0ZM221.853,190.025c1.631,1.65,4.29,1.665,5.94.034l.03-.031,17.923-17.923h0c3.274-3.274,7.565-4.911,11.857-4.911,4.292,0,8.583,1.637,11.857,4.911h0s65.316,65.316,65.316,65.316h0c1.64,1.64,4.3,1.64,5.94,0l.015-.016,21.459-21.459v72.764h-72.764s21.635-21.636,21.635-21.636h0c1.64-1.64,1.64-4.3,0-5.94l-.016-.015-50.473-50.473h0c-1.64-1.64-4.3-1.64-5.94,0l-.015.016-17.921,17.921c-3.274,3.274-7.566,4.911-11.857,4.911-4.292,0-8.584-1.637-11.858-4.911l-56.913-56.914v-48.204s65.785,66.543,65.785,66.543l2.987-2.937-2.987,2.953Z"/>
  <path class="cls-1" d="M124.267,234.717v147.275s34.446,0,34.446,0v-147.275s-34.446,0-34.446,0h0ZM167.662,230.242v156.223c0,2.471-2.003,4.474-4.475,4.474h-43.395c-2.471,0-4.474-2.003-4.474-4.474v-156.223c0-2.471,2.003-4.474,4.474-4.474h43.395c2.471,0,4.475,2.003,4.475,4.474Z"/>
  <path class="cls-1" d="M196.607,291.13v90.861s34.446,0,34.446,0v-90.861s-34.446,0-34.446,0h0ZM240.002,286.656v99.809c0,2.471-2.003,4.474-4.474,4.474h-43.395c-2.471,0-4.474-2.003-4.474-4.474v-99.809c0-2.471,2.003-4.474,4.474-4.474h43.395c2.471,0,4.474,2.003,4.474,4.474Z"/>
  <path class="cls-1" d="M268.947,312.828v69.163s34.447,0,34.447,0v-69.163s-34.447,0-34.447,0h0ZM312.342,308.354v78.112c0,2.471-2.003,4.474-4.475,4.474h-43.395c-2.471,0-4.474-2.003-4.474-4.474v-78.112c0-2.471,2.003-4.474,4.474-4.474h43.395c2.471,0,4.475,2.003,4.475,4.474Z"/>
  <path class="cls-1" d="M341.287,346.113v35.878s34.447,0,34.447,0v-35.878s-34.447,0-34.447,0h0ZM384.682,341.638v44.827c0,2.471-2.003,4.474-4.474,4.474h-43.395c-2.471,0-4.474-2.003-4.474-4.474v-44.827c0-2.471,2.003-4.474,4.474-4.474h43.395c2.471,0,4.474,2.003,4.474,4.474Z"/>
</svg>